<svg xmlns="http://www.w3.org/2000/svg" viewBox="0 0 55.32 51.07"><defs><style>.cls-1,.cls-2{fill:none;stroke-linecap:round;stroke-linejoin:round;stroke-width:2px;}.cls-1{stroke:#3bc0c7;}.cls-2{stroke:#fff31b;}</style></defs><title>icon_crio</title><g id="Layer_2" data-name="Layer 2"><g id="Layer_1-2" data-name="Layer 1"><path class="cls-1" d="M54.32,36.57A13.33,13.33,0,0,1,41,49.9H14.33A13.33,13.33,0,0,1,6.76,25.6a9.06,9.06,0,0,1-1.59-5.16,9.16,9.16,0,0,1,8.37-9.13,5.14,5.14,0,0,1,4.81-6.95,5.09,5.09,0,0,1,4.19,2.18c0-.14,0-.27,0-.41a5.14,5.14,0,0,1,10.28,0c0,.14,0,.27,0,.41a5.13,5.13,0,0,1,9.33,3,5.15,5.15,0,0,1-.33,1.81,9.16,9.16,0,0,1,8.37,9.13,9.06,9.06,0,0,1-1.59,5.16A13.3,13.3,0,0,1,54.32,36.57Z"/><path class="cls-2" d="M43.66,42.07a8,8,0,0,1-8,8h-16a8,8,0,0,1-4.54-14.58,5.39,5.39,0,0,1-.95-3.1,5.48,5.48,0,0,1,5-5.47,3.08,3.08,0,0,1,5.4-2.87,1.93,1.93,0,0,1,0-.24,3.08,3.08,0,0,1,6.16,0,1.93,1.93,0,0,1,0,.24,3.08,3.08,0,0,1,5.4,2.87,5.48,5.48,0,0,1,5,5.47,5.39,5.39,0,0,1-.95,3.1A8,8,0,0,1,43.66,42.07Z"/></g></g></svg>